<svg class="img-fluid" id="outputsvg" xmlns="http://www.w3.org/2000/svg" style="transform: matrix(1, 0, 0, 1, 0, 0); transform-origin: 50% 50%; cursor: move; max-height: 358.9px; transition: transform 200ms ease-in-out;" width="1024" height="1024" viewBox="0 0 10240 10240"><g id="l1cEhi6rshCvEy43tRaekWE" fill="none" stroke="rgb(255,254,254)" stroke-width="10" style="transform: none;"><g><path id="pZgdip0uY" d="M0 5120 l0 -5120 5120 0 5120 0 0 5120 0 5120 -5120 0 -5120 0 0 -5120z m1842 3563 l3 -158 433 -3 432 -2 0 92 c0 51 3 123 7 161 l6 67 93 0 94 0 0 -577 c0 -562 -1 -579 -20 -611 -37 -61 -64 -65 -345 -58 -371 8 -428 15 -528 63 -146 71 -244 169 -309 312 -51 110 -58 178 -58 542 l0 329 95 0 94 0 3 -157z m1975 -343 c1 -272 2 -507 3 -522 l0 -28 203 0 c111 0 226 -3 255 -6 l52 -7 0 -93 0 -94 -615 0 -615 0 0 95 0 95 260 0 260 0 0 530 0 531 98 -3 97 -3 2 -495z m1853 405 l0 -95 -480 0 -480 0 0 -530 0 -530 -79 0 c-44 0 -86 3 -95 6 -14 6 -16 66 -16 578 0 437 3 577 13 596 7 13 28 35 46 47 l34 23 528 0 529 0 0 -95z m360 -14 c0 -59 3 -129 6 -155 l7 -46 433 0 434 0 0 155 0 155 95 0 95 0 0 -576 c0 -556 -1 -578 -20 -608 -35 -58 -35 -58 -406 -54 -323 4 -342 5 -404 27 -79 28 -170 82 -229 136 -64 58 -137 175 -168 269 -27 81 -27 81 -31 444 l-4 362 96 0 96 0 0 -109z m2314 97 c52 -15 145 -94 184 -156 121 -189 48 -414 -166 -515 l-67 -32 -345 -5 c-372 -5 -371 -5 -404 -61 -11 -19 -16 -52 -16 -114 0 -86 1 -88 34 -121 l34 -34 399 0 c219 0 415 -3 436 -6 l37 -7 0 -91 0 -91 -242 3 c-660 6 -617 4 -679 33 -76 36 -129 86 -170 161 -32 59 -34 69 -34 158 0 82 4 103 26 151 35 75 96 134 177 172 l67 32 345 5 c308 4 349 7 373 23 40 26 56 56 62 117 9 82 -12 149 -54 177 l-34 23 -417 0 c-229 0 -445 3 -479 6 l-61 7 0 88 0 89 476 0 c339 0 489 -3 518 -12z m-1273 -2439 c145 -68 253 -236 299 -461 11 -53 20 -106 20 -117 l0 -21 -2281 0 -2281 0 7 53 c36 278 165 488 342 557 46 19 108 19 1943 17 l1895 -2 56 -26z m-3724 -1088 c-237 -241 -234 -233 -134 -334 34 -35 120 -123 191 -196 l129 -131 -351 0 -352 0 0 430 0 430 357 0 356 0 -196 -199z m1343 196 c0 -1 -35 -37 -78 -80 l-77 -77 -80 80 -80 80 158 0 c86 0 157 -1 157 -3z m1150 0 c0 -1 -35 -37 -78 -80 l-77 -77 -80 80 -80 80 158 0 c86 0 157 -1 157 -3z m1550 -427 l0 -430 -352 0 -353 0 193 193 c251 251 248 216 31 432 -88 88 -174 177 -191 198 l-30 37 351 0 351 0 0 -430z m-3227 192 l197 -197 -199 -199 c-149 -149 -202 -196 -213 -190 -8 5 -99 96 -203 202 l-189 193 199 199 c110 110 202 197 205 194 3 -2 94 -93 203 -202z m1149 -394 l-202 -203 -202 203 -203 202 203 202 202 202 203 -202 202 -202 -203 -202z m1187 369 c148 -150 163 -168 150 -183 -8 -10 -96 -101 -196 -203 l-182 -186 -203 202 -203 203 199 199 200 200 35 -33 c20 -18 110 -107 200 -199z m-1814 -897 l-155 -155 -152 153 -153 152 155 155 155 155 152 -152 153 -153 -155 -155z m1157 -2 l-152 -153 -155 155 -155 155 152 152 153 153 155 -155 155 -155 -153 -152z m-2490 -181 l-193 -193 3 -46 c3 -45 8 -51 187 -237 l183 -191 -348 2 -349 3 -3 428 -2 427 357 0 358 0 -193 -193z m4038 -242 l0 -435 -356 0 -356 0 196 203 c179 184 196 205 196 237 0 32 -15 50 -190 225 -104 104 -190 193 -190 197 0 5 158 8 350 8 l350 0 0 -435z m-3232 -202 l-202 -203 -203 203 -203 202 202 202 203 203 202 -202 203 -203 -202 -202z m2315 5 c-109 -109 -202 -198 -208 -198 -5 0 -99 89 -207 197 l-198 198 202 202 203 203 202 -202 203 -203 -197 -197z m-1156 396 l195 -195 -78 -81 c-90 -93 -231 -233 -287 -286 l-38 -36 -200 200 -199 199 197 197 c109 109 202 198 207 198 4 0 96 -88 203 -196z m-627 -929 l-155 -155 -155 155 -155 155 155 155 155 155 155 -155 155 -155 -155 -155z m1155 305 l150 -150 -154 -154 -153 -154 -149 151 c-82 84 -149 154 -149 158 0 8 291 299 299 299 4 0 74 -68 156 -150z m-2355 -347 c-25 -27 -111 -116 -193 -199 -142 -144 -148 -152 -145 -187 3 -33 24 -58 197 -232 l194 -195 -356 0 -357 0 0 430 0 430 352 0 352 0 -44 -47z m3900 -383 l0 -430 -351 0 -352 0 50 53 c28 28 114 117 192 196 184 188 183 172 23 337 -64 66 -150 155 -191 197 l-74 77 351 0 352 0 0 -430z m-3232 -197 l-203 -203 -202 202 -201 201 201 203 202 203 203 -202 202 -202 -202 -202z m1155 399 l199 -199 -201 -204 -200 -204 -201 204 -202 204 198 198 c110 110 201 199 204 199 3 0 94 -89 203 -198z m1159 1 l198 -198 -202 -202 -203 -203 -202 202 -202 202 198 198 c109 109 202 198 207 198 5 0 98 -89 206 -197z m-1857 -553 l80 -80 -165 0 -164 0 84 80 c47 43 85 79 85 80 0 0 36 -36 80 -80z m1156 0 l80 -80 -163 0 -163 0 80 80 c44 44 81 80 82 80 2 0 39 -36 84 -80z m1619 -389 c0 -10 -7 -56 -16 -101 -44 -232 -150 -400 -304 -481 l-45 -24 -1911 0 c-1807 0 -1913 1 -1931 18 -11 9 -28 17 -39 17 -27 0 -106 66 -156 131 -76 98 -134 251 -152 402 l-7 57 2280 0 c2230 0 2281 0 2281 -19z"/><path id="pR8qKvm1S" d="M1847 8333 c-4 -3 -7 -36 -7 -72 1 -230 68 -359 226 -433 l64 -30 287 -9 c158 -5 290 -6 295 -1 5 5 7 130 6 278 l-3 269 -431 3 c-237 1 -434 -1 -437 -5z"/><path id="p14vc2FBZ" d="M6040 8331 c-12 -8 -12 -29 -3 -144 13 -157 33 -210 110 -289 94 -96 200 -119 524 -116 l234 3 0 275 0 275 -425 2 c-248 2 -431 -1 -440 -6z"/></g></g><g id="l2XIKlX0TE9BPSC99qv5Ifo" fill="rgb(7,168,159)" style="transform: none;"><g><path id="pOaiRqGea" d="M1620 8511 c0 -396 6 -460 58 -572 65 -143 163 -241 309 -312 102 -49 160 -55 558 -64 314 -6 337 -2 375 59 19 32 20 49 20 641 l0 607 -124 0 -123 0 -6 -67 c-4 -38 -7 -110 -7 -161 l0 -92 -402 2 -403 3 -3 158 -3 157 -124 0 -125 0 0 -359z m1068 -445 c1 -132 -1 -243 -5 -247 -5 -4 -124 -4 -265 1 -258 8 -258 8 -322 38 -135 63 -199 158 -218 324 -6 52 -8 102 -5 112 6 15 41 16 409 14 l403 -3 3 -239z"/><path id="p1EQxa3srx" d="M3590 8340 l0 -530 -260 0 -260 0 0 -125 0 -125 645 0 645 0 0 124 0 123 -52 7 c-29 3 -144 6 -255 6 l-203 0 0 28 c0 15 -1 250 -3 522 l-2 495 -127 3 -128 3 0 -531z"/><path id="peAXDz0zR" d="M4549 8847 c-18 -12 -39 -34 -46 -47 -10 -19 -13 -165 -13 -626 0 -540 2 -602 16 -608 9 -3 65 -6 125 -6 l109 0 0 530 0 530 480 0 480 0 0 125 0 125 -559 0 -558 0 -34 -23z"/><path id="p17yJGnZqP" d="M5812 8478 l4 -393 27 -81 c31 -94 104 -211 168 -269 59 -54 150 -108 229 -136 63 -23 79 -24 434 -27 403 -4 401 -4 436 54 19 30 20 52 20 638 l0 606 -125 0 -125 0 0 -155 0 -155 -404 0 -403 0 -7 46 c-3 26 -6 96 -6 155 l0 109 -126 0 -126 0 4 -392z m1063 -418 l0 -245 -203 -3 c-292 -4 -403 23 -495 116 -70 72 -95 132 -108 257 -9 88 -8 109 3 116 7 5 191 8 408 6 l395 -2 0 -245z"/><path id="p10AUqOtC4" d="M7320 8751 l0 -118 61 -7 c34 -3 249 -6 478 -6 398 0 417 -1 449 -20 39 -24 54 -58 54 -122 0 -53 -18 -88 -59 -115 -24 -16 -65 -19 -373 -23 l-345 -5 -67 -32 c-120 -57 -190 -153 -209 -289 -25 -179 57 -342 210 -412 64 -30 58 -29 649 -35 l332 -3 0 122 0 121 -37 7 c-21 3 -217 6 -436 6 l-399 0 -34 34 c-31 31 -34 40 -34 91 0 61 17 102 54 126 17 11 91 15 366 19 l345 5 67 32 c141 66 216 175 225 325 9 145 -36 253 -145 346 -32 26 -76 54 -98 60 -30 9 -186 12 -548 12 l-506 0 0 -119z"/><path id="p1EUgdJbki" d="M3147 6430 c-128 -50 -237 -181 -298 -359 -24 -67 -49 -207 -49 -267 l0 -44 2310 0 2310 0 0 51 c0 71 -34 231 -66 309 -33 83 -102 187 -155 235 -23 21 -67 49 -98 64 l-56 26 -1925 2 c-1869 2 -1926 2 -1973 -17z"/><path id="pud651nS" d="M2800 5070 l0 -460 412 0 411 0 -164 166 c-90 91 -190 193 -222 226 l-57 60 26 31 c14 18 116 123 227 235 l200 202 -416 0 -417 0 0 -460z"/><path id="pKL0PL70E" d="M3725 5300 l-229 -229 188 -193 c104 -106 203 -205 220 -220 57 -52 62 -48 295 186 117 118 211 220 210 225 -4 9 -184 193 -381 388 l-73 73 -230 -230z"/><path id="pkk8Aqbve" d="M4405 5410 c66 -66 124 -120 130 -120 6 0 64 54 130 120 l120 120 -250 0 -250 0 120 -120z"/><path id="p1G646gZQn" d="M4886 5310 c-124 -123 -226 -230 -226 -239 0 -9 101 -117 225 -241 l225 -225 233 233 232 232 -232 232 -231 231 -226 -223z"/><path id="p1FIuA3uMe" d="M5555 5410 c66 -66 124 -120 130 -120 6 0 64 54 130 120 l120 120 -250 0 -250 0 120 -120z"/><path id="ptT5Yid2R" d="M6035 5300 l-230 -230 233 -233 233 -232 197 200 c108 110 210 215 226 233 l29 33 -179 181 c-98 100 -202 203 -230 229 l-50 48 -229 -229z"/><path id="pJKfugkQq" d="M6688 5433 c50 -54 149 -156 221 -228 72 -71 131 -134 131 -140 0 -6 -96 -107 -214 -224 -118 -118 -213 -218 -210 -223 3 -4 185 -8 405 -8 l399 0 0 460 0 460 -411 0 -411 0 90 -97z"/><path id="p1GfFfenm7" d="M4350 4675 l-185 -185 170 -170 c130 -130 176 -170 195 -170 19 0 66 40 198 173 l172 172 -183 183 -182 182 -185 -185z"/><path id="p1CMwkxr4w" d="M5507 4682 c-97 -97 -177 -182 -177 -187 0 -6 81 -91 180 -190 l180 -180 183 183 182 182 -185 185 -185 185 -178 -178z"/><path id="pBLeueB21" d="M2802 3923 l3 -458 405 -5 c223 -3 407 -4 409 -3 2 1 -93 102 -210 223 -118 121 -215 229 -217 238 -2 11 75 94 213 232 118 118 215 218 215 222 0 5 -185 8 -410 8 l-410 0 2 -457z"/><path id="p1HtbTQfHn" d="M6630 4343 c19 -21 120 -124 224 -230 l190 -192 -141 -148 c-78 -81 -178 -184 -222 -227 -44 -44 -78 -83 -75 -88 3 -4 187 -8 410 -8 l404 0 0 465 0 465 -412 0 -412 0 34 -37z"/><path id="pSnefBMtO" d="M3721 4146 c-194 -194 -222 -226 -213 -242 22 -40 428 -434 448 -434 12 0 103 84 242 223 l222 222 -228 228 c-125 125 -232 227 -237 227 -6 0 -111 -101 -234 -224z"/><path id="pRB8YFnAD" d="M4882 4147 c-122 -122 -222 -227 -222 -232 0 -6 101 -111 225 -235 l224 -224 53 51 c87 84 216 212 316 316 l95 97 -226 225 c-125 124 -230 225 -234 225 -5 0 -108 -100 -231 -223z"/><path id="p58djldLX" d="M6032 4147 c-122 -122 -222 -227 -222 -232 0 -9 386 -397 438 -440 l23 -19 224 224 c124 124 225 229 225 235 0 13 -442 455 -455 455 -6 0 -110 -100 -233 -223z"/><path id="pZDP4et06" d="M4345 3520 l-180 -180 180 -180 c99 -99 184 -180 190 -180 6 0 91 81 190 180 l180 181 -181 179 c-100 99 -185 180 -190 180 -5 0 -90 -81 -189 -180z"/><path id="p1DMuZ3LrP" d="M5507 3523 c-97 -97 -177 -179 -177 -182 0 -9 349 -361 358 -361 4 0 88 81 187 180 l180 180 -180 180 c-99 99 -182 180 -186 180 -3 0 -85 -79 -182 -177z"/><path id="piISYQVNK" d="M2800 2760 l0 -460 417 0 417 0 -225 225 c-123 124 -226 228 -229 231 -2 3 63 73 146 157 82 84 183 187 224 230 l74 77 -412 0 -412 0 0 -460z"/><path id="pDYEi0eDC" d="M3723 2996 c-122 -124 -223 -228 -223 -233 0 -12 443 -453 455 -453 6 0 113 102 238 228 l227 227 -228 228 c-125 125 -231 227 -236 227 -5 0 -110 -101 -233 -224z"/><path id="pIH16aLKJ" d="M4877 2992 l-229 -229 224 -226 c123 -125 231 -227 240 -227 9 0 116 102 238 227 l221 227 -228 228 c-125 125 -230 228 -233 228 -3 0 -108 -103 -233 -228z"/><path id="peFCESWqo" d="M6035 2997 c-124 -122 -225 -227 -225 -232 0 -6 102 -113 228 -238 l227 -227 228 228 c125 125 227 232 227 237 0 12 -441 455 -453 455 -4 0 -109 -100 -232 -223z"/><path id="p7D2bYUlf" d="M6604 3213 c51 -50 432 -447 434 -452 1 -5 -94 -106 -212 -226 -118 -120 -213 -222 -210 -227 3 -4 185 -8 405 -8 l399 0 0 460 0 460 -412 0 c-226 0 -408 -3 -404 -7z"/><path id="p1FJYLI6t4" d="M4418 2436 c-65 -62 -118 -119 -118 -125 0 -8 69 -11 242 -11 l243 0 -125 125 c-69 69 -125 125 -125 125 0 0 -53 -52 -117 -114z"/><path id="pNXSMbh2G" d="M5567 2432 c-65 -65 -115 -121 -111 -125 8 -8 474 -10 474 -2 0 6 -173 179 -221 222 l-25 23 -117 -118z"/><path id="pvXhGNGm0" d="M2803 1987 c13 -164 71 -329 155 -436 50 -65 129 -131 156 -131 11 0 28 -8 39 -17 18 -17 126 -18 1961 -18 l1941 0 45 24 c154 81 260 249 304 481 9 45 16 104 16 131 l0 49 -2311 0 -2312 0 6 -83z"/></g></g></svg>